<svg width="24" height="22" viewBox="0 0 24 22" fill="none" xmlns="http://www.w3.org/2000/svg">
<mask id="mask0_4250_11" style="mask-type:luminance" maskUnits="userSpaceOnUse" x="0" y="0" width="24" height="22">
<path d="M0 0H23.1611V22H0V0Z" fill="white"/>
</mask>
<g mask="url(#mask0_4250_11)">
<path d="M11.1956 0C5.12111 0 0.183334 4.93778 0.183334 11C0.183334 17.0683 5.12111 22 11.1956 22C17.2639 22 22.2017 17.0683 22.2017 11C22.2017 9.76555 21.9878 8.57389 21.6089 7.46167L19.8244 9.24611C19.9406 9.81444 20.0017 10.4011 20.0017 11C20.0017 15.8522 16.0478 19.8 11.1956 19.8C6.33723 19.8 2.38945 15.8522 2.38945 11C2.38945 6.14778 6.33723 2.2 11.1956 2.2C12.9922 2.2 14.6667 2.74389 16.06 3.67278L17.6367 2.10222C15.8217 0.788333 13.5972 0 11.1956 0ZM21.4256 1.42389L10.0956 12.7478L6.46556 9.12389L4.91334 10.6822L10.0956 15.8583L22.9839 2.98222L21.4256 1.42389Z" fill="white"/>
</g>
</svg>
