<svg width="20" height="20" viewBox="0 0 20 20" fill="none" xmlns="http://www.w3.org/2000/svg">
<path d="M12.501 14.167H7.50098V15.0003C7.50098 16.381 8.62026 17.5003 10.001 17.5003C11.3817 17.5003 12.501 16.381 12.501 15.0003V14.167Z" stroke="#D7A13B" stroke-linecap="round" stroke-linejoin="round"/>
<path d="M4.16634 14.1667H15.833C16.2932 14.1667 16.6663 13.7936 16.6663 13.3333V12.8452C16.6663 12.6242 16.5785 12.4122 16.4223 12.2559L15.9966 11.8302C15.8918 11.7255 15.833 11.5834 15.833 11.4353V8.33333C15.833 5.11167 13.2213 2.49999 9.99966 2.5C6.778 2.50001 4.16634 5.11168 4.16634 8.33333V11.4354C4.16634 11.5835 4.1075 11.7255 4.00277 11.8303L3.57709 12.2559C3.42081 12.4122 3.33301 12.6242 3.33301 12.8452V13.3333C3.33301 13.7936 3.7061 14.1667 4.16634 14.1667Z" stroke="#D7A13B" stroke-linecap="round" stroke-linejoin="round"/>
</svg>
