<svg width="188" height="52" viewBox="0 0 188 52" fill="none" xmlns="http://www.w3.org/2000/svg">
<rect x="0.25" y="0.25" width="187.5" height="51.5" rx="7.75" fill="white" fill-opacity="0.28" stroke="white" stroke-width="0.5"/>
<path d="M37.0015 7C25.9529 7 17 15.7285 17 26.5C17 37.2659 25.9529 46 37.0015 46C48.0471 46 57 37.2659 57 26.5C57 15.7285 48.0471 7 37.0015 7ZM37.0015 41.3208C28.6045 41.3208 21.7995 34.6808 21.7995 26.4972C21.7995 18.3107 28.6045 11.6792 37.0015 11.6792C45.3955 11.6792 52.2005 18.3107 52.2005 26.4972C52.2005 34.6836 45.3955 41.3208 37.0015 41.3208Z" fill="white"/>
<path d="M40.6775 22.8222V14.8297H33.3253V19.1218C33.1827 22.3959 35.7033 25.1075 38.838 26.1602C39.4376 26.3603 40.0546 26.4734 40.6775 26.5082L46.8595 26.514C46.8595 26.5198 46.8566 26.5198 46.8566 26.5227H48.6961V22.8251L40.6775 22.8222Z" fill="white"/>
<path d="M32.8713 22.8222H25.3009V30.1448H33.3254V38.1402H40.6775V30.1477H40.6804C39.8858 30.1796 39.0796 30.0839 38.2791 29.8374C35.2405 28.9123 33.2613 26.079 32.8713 22.8222Z" fill="white"/>
<path d="M72.635 26.8994C72.254 27.2521 71.4597 27.9763 69.8872 27.9763C67.2853 27.9763 65.6885 25.8711 65.6885 23.1332C65.6885 20.145 67.6284 18.1582 70.2843 18.1582C72.7566 18.1582 73.9562 19.7385 74.3912 20.3038L72.6215 21.3699C72.2918 20.8692 71.7488 20.0535 70.4546 20.0535C68.6848 20.0535 68.0121 21.5153 68.0121 23.0659C68.0121 24.1212 68.3039 24.9746 68.7524 25.435C69.109 25.8172 69.744 26.1053 70.4546 26.1053C70.8788 26.1053 71.3543 26.0003 71.7352 25.7526C72.3432 25.3569 72.4215 24.8562 72.4891 24.3689H70.4032V22.6056H74.4587V27.7636H72.635V26.8994Z" fill="white"/>
<path d="M77.9198 21.6068C78.3683 21.2245 78.8574 20.9203 79.9138 20.818V22.6083L79.2383 22.7106C78.2602 22.8829 77.9711 23.0282 77.9711 23.8951V27.7636H75.9366V20.8826H77.9198V21.6068Z" fill="white"/>
<path d="M87.3629 26.0164C87.1251 26.3691 86.8873 26.711 86.5307 27.0421C85.9363 27.594 85.0392 28.0167 83.9288 28.0167C81.8808 28.0167 80.4407 26.7137 80.4407 24.4658C80.4407 22.8048 81.262 20.6754 83.9801 20.6754C84.3881 20.6754 85.5769 20.7157 86.4631 21.6633C87.3601 22.6217 87.4142 23.9678 87.4412 24.7404H82.5157C82.5022 25.5992 82.9912 26.4526 84.0855 26.4526C85.196 26.4526 85.5796 25.7284 85.8309 25.2411L87.3629 26.0164ZM85.3446 23.4751C85.304 23.1871 85.2527 22.8021 84.9609 22.4979C84.7096 22.2502 84.326 22.1183 83.972 22.1183C83.483 22.1183 83.1398 22.3552 82.9399 22.5652C82.6643 22.8667 82.5968 23.1844 82.5319 23.4724L85.3446 23.4751Z" fill="white"/>
<path d="M88.5922 22.8452C88.6327 22.3714 88.7003 21.806 89.319 21.3161C89.9539 20.8153 90.7726 20.7103 91.5778 20.7103C92.4234 20.7103 94.4715 20.9069 94.4715 22.6863V26.6868C94.4715 27.4217 94.5093 27.5267 94.6687 27.7636H92.6747V27.131C92.1587 27.5132 91.5778 27.9494 90.5619 27.9494C88.9786 27.9494 88.3031 26.8187 88.3031 25.8576C88.3031 24.7539 89.1866 24.1212 89.754 23.8843C90.3106 23.6474 91.6183 23.4132 92.4748 23.2517V22.8829C92.4478 22.5679 92.4234 22.0402 91.6966 22.0402C90.7996 22.0402 90.678 22.5948 90.6267 22.8452H88.5922ZM91.1671 24.91C90.8239 25.0392 90.2944 25.2384 90.2944 25.7634C90.2944 26.0945 90.5862 26.4606 91.059 26.4606C91.3103 26.4606 91.548 26.3691 91.7615 26.2372C92.4343 25.8145 92.4586 25.1819 92.4721 24.4739L91.1671 24.91Z" fill="white"/>
<path d="M96.5708 18.9093H98.5918V21.0522H99.9238V22.2906H98.5783V25.3838C98.5648 25.8065 98.5648 26.1591 99.1051 26.1591L99.8292 26.1322V27.7125C99.3942 27.7798 99.1294 27.8201 98.7593 27.8201C98.0595 27.8201 97.2949 27.7798 96.8572 27.1471C96.5816 26.7379 96.5681 26.2507 96.5681 25.5965V22.2771H95.563V21.0388H96.5681L96.5708 18.9093Z" fill="white"/>
<path d="M107.44 26.0164C107.203 26.3691 106.965 26.711 106.608 27.0421C106.014 27.594 105.114 28.0167 104.006 28.0167C101.958 28.0167 100.518 26.7137 100.518 24.4658C100.518 22.8048 101.337 20.6754 104.058 20.6754C104.466 20.6754 105.655 20.7157 106.541 21.6633C107.44 22.6217 107.492 23.9678 107.519 24.7404H102.593C102.58 25.5992 103.069 26.4526 104.166 26.4526C105.276 26.4526 105.66 25.7284 105.909 25.2411L107.44 26.0164ZM105.419 23.4751C105.382 23.1871 105.328 22.8021 105.036 22.4979C104.785 22.2502 104.404 22.1183 104.044 22.1183C103.558 22.1183 103.212 22.3552 103.015 22.5652C102.737 22.8667 102.669 23.1844 102.604 23.4724L105.419 23.4751Z" fill="white"/>
<path d="M110.648 21.6068C111.096 21.2245 111.588 20.9203 112.644 20.818V22.6083L111.969 22.7106C110.993 22.8829 110.702 23.0282 110.702 23.8951V27.7636H108.667V20.8826H110.648V21.6068Z" fill="white"/>
<path d="M117.213 18.4759H119.501L121.52 21.8949C122.257 23.1978 122.484 23.6178 122.919 24.4335L122.814 18.4732H125.046V27.7636H122.76L121.017 24.8292C120.172 23.4482 120.012 23.1574 119.38 21.9191L119.447 27.7636H117.213V18.4759Z" fill="white"/>
<path d="M126.832 22.8452C126.87 22.3714 126.934 21.806 127.559 21.3161C128.191 20.8153 129.009 20.7103 129.815 20.7103C130.66 20.7103 132.706 20.9069 132.706 22.6863V26.6868C132.706 27.4217 132.746 27.5267 132.906 27.7636H130.909V27.131C130.393 27.5132 129.812 27.9494 128.796 27.9494C127.21 27.9494 126.537 26.8187 126.537 25.8576C126.537 24.7539 127.421 24.1212 127.991 23.8843C128.545 23.6474 129.852 23.4132 130.712 23.2517V22.8829C130.685 22.5679 130.66 22.0402 129.933 22.0402C129.034 22.0402 128.915 22.5948 128.861 22.8452H126.832ZM129.404 24.91C129.063 25.0392 128.534 25.2384 128.534 25.7634C128.534 26.0945 128.823 26.4606 129.301 26.4606C129.55 26.4606 129.788 26.3691 129.998 26.2372C130.674 25.8145 130.698 25.1819 130.714 24.4739L129.404 24.91Z" fill="white"/>
<path d="M134.808 18.9093H136.829V21.0522H138.163V22.2906H136.815V25.3838C136.804 25.8065 136.804 26.1591 137.347 26.1591L138.071 26.1322V27.7125C137.634 27.7798 137.372 27.8201 136.999 27.8201C136.302 27.8201 135.534 27.7798 135.099 27.1471C134.821 26.7379 134.808 26.2507 134.808 25.5965V22.2771H133.805V21.0388H134.808V18.9093Z" fill="white"/>
<path d="M139.26 18.4598H141.265V20.0266H139.26V18.4598ZM139.26 20.8826H141.265V27.7663H139.26V20.8826Z" fill="white"/>
<path d="M150.024 24.3177C150.024 26.0568 149.019 27.9655 146.326 27.9655C144.383 27.9655 142.616 26.8591 142.616 24.3177C142.616 22.2125 143.948 20.5407 146.59 20.6861C149.406 20.845 150.024 23.0659 150.024 24.3177ZM145.007 22.9636C144.756 23.3567 144.661 23.8305 144.661 24.3043C144.661 25.3973 145.188 26.3583 146.326 26.3583C147.423 26.3583 147.966 25.478 147.966 24.3958C147.966 23.634 147.779 23.0417 147.396 22.6729C146.974 22.2771 146.499 22.2664 146.209 22.2906C145.626 22.331 145.283 22.5275 145.007 22.9636Z" fill="white"/>
<path d="M152.891 21.5153C153.091 21.3053 153.223 21.1465 153.577 20.9742C153.894 20.8449 154.342 20.7238 154.834 20.7238C155.242 20.7238 155.706 20.8019 156.063 21.0011C156.787 21.3834 156.974 22.0025 156.974 23.0659V27.7636H154.953V23.8951C154.953 23.2786 154.942 23.0551 154.861 22.8694C154.707 22.4979 154.347 22.3417 153.953 22.3417C152.88 22.3417 152.88 23.1951 152.88 24.0539V27.7636H150.849V20.9096H152.894V21.5153H152.891Z" fill="white"/>
<path d="M158.238 22.8452C158.276 22.3714 158.346 21.806 158.965 21.3161C159.6 20.8153 160.419 20.7103 161.226 20.7103C162.069 20.7103 164.117 20.9069 164.117 22.6863V26.6868C164.117 27.4217 164.155 27.5267 164.315 27.7636H162.318V27.131C161.805 27.5132 161.226 27.9494 160.208 27.9494C158.622 27.9494 157.949 26.8187 157.949 25.8576C157.949 24.7539 158.835 24.1212 159.403 23.8843C159.959 23.6474 161.267 23.4132 162.121 23.2517V22.8829C162.096 22.5679 162.069 22.0402 161.34 22.0402C160.443 22.0402 160.327 22.5948 160.273 22.8452H158.238ZM160.818 24.91C160.473 25.0392 159.946 25.2384 159.946 25.7634C159.946 26.0945 160.235 26.4606 160.71 26.4606C160.962 26.4606 161.197 26.3691 161.407 26.2372C162.083 25.8145 162.11 25.1819 162.121 24.4739L160.818 24.91Z" fill="white"/>
<path d="M168 18.4759V27.7663H165.965V18.4759H168Z" fill="white"/>
<path d="M71.0383 31.2714L74.4723 40.5645H71.9893L71.5273 39.0757H68.0932L67.6312 40.5645H65.1482L68.6066 31.2714H71.0383ZM69.7846 33.4816C69.6657 33.9554 69.536 34.44 69.4009 34.9165C69.201 35.6137 68.8443 36.7067 68.6336 37.4013H70.9977L69.7846 33.4816Z" fill="white"/>
<path d="M81.3296 31.2714V40.5645H79.4789V39.9184C79.1627 40.2333 78.6359 40.7502 77.6173 40.7502C76.931 40.7502 76.2177 40.4864 75.6746 39.9587C74.6722 38.9977 74.6722 37.6166 74.6722 37.1697C74.6722 34.5773 76.1502 33.5085 77.5389 33.5085C78.4521 33.5085 78.9925 33.9285 79.3627 34.2085V31.2714H81.3296ZM79.4005 37.1267C79.4005 36.8117 79.4005 35.9583 78.9655 35.428C78.8736 35.3095 78.5818 35.0188 78.1712 35.0188C76.7338 35.0188 76.7338 36.8252 76.7338 37.1267C76.7338 38.0877 76.9985 39.2615 78.028 39.2615C78.2522 39.2615 78.49 39.1807 78.6872 39.0515C79.4005 38.5642 79.4005 37.509 79.4005 37.1267Z" fill="white"/>
<path d="M82.2294 33.6916H84.3692C85.2149 36.7471 85.3581 37.377 85.5851 38.6935C85.8607 37.1671 85.9012 36.9975 86.3119 35.3768L86.7334 33.6916H88.8192L86.5875 40.5645H84.4611L82.2294 33.6916Z" fill="white"/>
<path d="M96.6653 37.1159C96.6653 38.8496 95.663 40.761 92.9665 40.761C91.0266 40.761 89.2568 39.6545 89.2568 37.1159C89.2568 35.008 90.5889 33.3362 93.2313 33.4843C96.0466 33.6404 96.6653 35.8614 96.6653 37.1159ZM91.648 35.7591C91.3967 36.1548 91.3049 36.6286 91.3049 37.0998C91.3049 38.1901 91.8344 39.1538 92.9692 39.1538C94.0662 39.1538 94.6065 38.2735 94.6065 37.1913C94.6065 36.4294 94.4228 35.8345 94.0391 35.4657C93.6176 35.0726 93.1421 35.0592 92.8503 35.0861C92.2667 35.1265 91.9236 35.3257 91.648 35.7591Z" fill="white"/>
<path d="M104.009 38.9438C103.758 39.3396 103.482 39.773 102.928 40.166C102.402 40.5375 101.726 40.7852 100.948 40.7852C99.6267 40.7852 97.5273 39.9964 97.5273 37.1913C97.5273 35.1911 98.6891 33.5058 100.988 33.5058C101.753 33.5058 103.061 33.7185 103.933 35.1534L102.426 36.0068C102.31 35.7564 102.175 35.5195 101.845 35.2826C101.648 35.1534 101.396 35.0457 101.078 35.0457C99.9806 35.0457 99.6105 36.2975 99.6105 37.1267C99.6105 38.0339 100.059 39.1807 101.145 39.1807C101.251 39.1807 101.753 39.1807 102.175 38.7069C102.347 38.5104 102.415 38.3516 102.48 38.155L104.009 38.9438Z" fill="white"/>
<path d="M104.563 35.6406C104.603 35.1668 104.671 34.6015 105.29 34.1142C105.925 33.6135 106.743 33.5058 107.548 33.5058C108.394 33.5058 110.445 33.7023 110.445 35.4818V39.4822C110.445 40.2172 110.483 40.3249 110.642 40.5618H108.648V39.9291C108.135 40.3087 107.551 40.7475 106.535 40.7475C104.949 40.7475 104.276 39.6142 104.276 38.6531C104.276 37.5493 105.163 36.9167 105.73 36.6798C106.287 36.4429 107.594 36.206 108.451 36.0498V35.681C108.424 35.366 108.397 34.8411 107.67 34.8411C106.773 34.8411 106.654 35.393 106.603 35.6433L104.563 35.6406ZM107.14 37.7082C106.795 37.8374 106.268 38.0339 106.268 38.5615C106.268 38.89 106.56 39.2588 107.032 39.2588C107.284 39.2588 107.521 39.1673 107.732 39.0327C108.405 38.6127 108.432 37.9801 108.445 37.2693L107.14 37.7082Z" fill="white"/>
<path d="M112.541 31.7048H114.56V33.8504H115.895V35.0888H114.549V38.1793C114.535 38.6019 114.535 38.9546 115.076 38.9546L115.8 38.9304V40.5106C115.365 40.5752 115.1 40.6156 114.73 40.6156C114.033 40.6156 113.266 40.5752 112.828 39.9453C112.55 39.5388 112.539 39.0515 112.539 38.392V35.0753H111.534V33.8369H112.539L112.541 31.7048Z" fill="white"/>
<path d="M123.414 38.8119C123.176 39.1673 122.938 39.5092 122.582 39.8376C121.985 40.3895 121.088 40.8121 119.977 40.8121C117.932 40.8121 116.492 39.5092 116.492 37.2586C116.492 35.603 117.313 33.4681 120.031 33.4681C120.442 33.4681 121.628 33.5085 122.517 34.4561C123.414 35.4172 123.465 36.7579 123.495 37.5359H118.564C118.551 38.392 119.04 39.2454 120.134 39.2454C121.244 39.2454 121.628 38.5239 121.879 38.0339L123.414 38.8119ZM121.39 36.2706C121.352 35.9799 121.298 35.6003 121.007 35.2961C120.755 35.0457 120.374 34.9138 120.015 34.9138C119.529 34.9138 119.183 35.1507 118.986 35.3607C118.707 35.6649 118.64 35.9772 118.575 36.2679L121.39 36.2706Z" fill="white"/>
<path d="M125.024 38.2466C125.578 38.7877 126.264 39.1942 127.029 39.1942C127.518 39.1942 128.261 39.0354 128.261 38.5266C128.261 38.287 128.112 38.1927 127.996 38.1281C127.694 37.972 127.215 37.9343 126.821 37.867C126.516 37.8132 126.199 37.7486 125.897 37.657C125.475 37.5386 125.051 37.3663 124.749 37.0621C124.446 36.7606 124.235 36.2841 124.235 35.7753C124.235 34.6419 125.213 33.4681 127.142 33.4681C128.763 33.4681 129.744 34.1654 130.22 34.4938L128.963 35.6568C128.318 35.1561 127.707 34.9703 127.234 34.9703C126.44 34.9703 126.256 35.2853 126.256 35.4818C126.256 35.8776 126.691 35.9583 127.35 36.0741C128.739 36.3244 130.349 36.6933 130.349 38.3247C130.349 39.9426 128.712 40.7314 127.086 40.7314C125.173 40.7314 124.181 39.8107 123.743 39.4042L125.024 38.2466Z" fill="white"/>
<path d="M67.857 12.882C68.013 12.882 68.15 12.862 68.268 12.822C68.388 12.782 68.487 12.726 68.565 12.654C68.645 12.58 68.705 12.491 68.745 12.387C68.785 12.283 68.805 12.167 68.805 12.039C68.805 11.913 68.785 11.8 68.745 11.7C68.707 11.6 68.649 11.515 68.571 11.445C68.493 11.375 68.394 11.322 68.274 11.286C68.156 11.248 68.017 11.229 67.857 11.229H67.215V12.882H67.857ZM67.857 10.68C68.139 10.68 68.383 10.713 68.589 10.779C68.797 10.845 68.968 10.938 69.102 11.058C69.238 11.176 69.339 11.319 69.405 11.487C69.471 11.653 69.504 11.837 69.504 12.039C69.504 12.245 69.469 12.434 69.399 12.606C69.329 12.776 69.225 12.923 69.087 13.047C68.949 13.169 68.777 13.265 68.571 13.335C68.367 13.403 68.129 13.437 67.857 13.437H67.215V15H66.513V10.68H67.857ZM72.3891 12.75C72.5491 12.75 72.6891 12.731 72.8091 12.693C72.9291 12.653 73.0291 12.598 73.1091 12.528C73.1891 12.458 73.2491 12.375 73.2891 12.279C73.3291 12.181 73.3491 12.073 73.3491 11.955C73.3491 11.719 73.2711 11.539 73.1151 11.415C72.9591 11.291 72.7231 11.229 72.4071 11.229H71.8371V12.75H72.3891ZM74.4231 15H73.7961C73.6721 15 73.5821 14.952 73.5261 14.856L72.5181 13.401C72.4841 13.351 72.4471 13.315 72.4071 13.293C72.3671 13.271 72.3071 13.26 72.2271 13.26H71.8371V15H71.1351V10.68H72.4071C72.6911 10.68 72.9351 10.709 73.1391 10.767C73.3451 10.825 73.5141 10.908 73.6461 11.016C73.7781 11.122 73.8751 11.25 73.9371 11.4C74.0011 11.55 74.0331 11.717 74.0331 11.901C74.0331 12.051 74.0101 12.191 73.9641 12.321C73.9201 12.451 73.8551 12.569 73.7691 12.675C73.6851 12.781 73.5811 12.873 73.4571 12.951C73.3331 13.029 73.1921 13.09 73.0341 13.134C73.1201 13.186 73.1941 13.259 73.2561 13.353L74.4231 15ZM79.91 12.84C79.91 13.16 79.858 13.455 79.754 13.725C79.65 13.995 79.503 14.228 79.313 14.424C79.125 14.618 78.898 14.77 78.632 14.88C78.368 14.99 78.074 15.045 77.75 15.045C77.428 15.045 77.134 14.99 76.868 14.88C76.604 14.77 76.377 14.618 76.187 14.424C75.997 14.228 75.85 13.995 75.746 13.725C75.642 13.455 75.59 13.16 75.59 12.84C75.59 12.52 75.642 12.225 75.746 11.955C75.85 11.685 75.997 11.452 76.187 11.256C76.377 11.06 76.604 10.907 76.868 10.797C77.134 10.687 77.428 10.632 77.75 10.632C78.074 10.632 78.368 10.687 78.632 10.797C78.898 10.907 79.125 11.06 79.313 11.256C79.503 11.452 79.65 11.685 79.754 11.955C79.858 12.225 79.91 12.52 79.91 12.84ZM79.193 12.84C79.193 12.592 79.159 12.369 79.091 12.171C79.025 11.973 78.929 11.805 78.803 11.667C78.679 11.529 78.528 11.423 78.35 11.349C78.172 11.275 77.972 11.238 77.75 11.238C77.53 11.238 77.331 11.275 77.153 11.349C76.975 11.423 76.823 11.529 76.697 11.667C76.571 11.805 76.474 11.973 76.406 12.171C76.338 12.369 76.304 12.592 76.304 12.84C76.304 13.09 76.338 13.314 76.406 13.512C76.474 13.71 76.571 13.878 76.697 14.016C76.823 14.152 76.975 14.257 77.153 14.331C77.331 14.403 77.53 14.439 77.75 14.439C77.972 14.439 78.172 14.403 78.35 14.331C78.528 14.257 78.679 14.152 78.803 14.016C78.929 13.878 79.025 13.71 79.091 13.512C79.159 13.314 79.193 13.09 79.193 12.84ZM83.3431 14.433C83.5091 14.433 83.6571 14.405 83.7871 14.349C83.9191 14.293 84.0301 14.215 84.1201 14.115C84.2121 14.015 84.2821 13.895 84.3301 13.755C84.3781 13.613 84.4021 13.456 84.4021 13.284V10.68H85.1011V13.284C85.1011 13.538 85.0601 13.773 84.9781 13.989C84.8981 14.205 84.7821 14.392 84.6301 14.55C84.4781 14.706 84.2931 14.829 84.0751 14.919C83.8591 15.007 83.6151 15.051 83.3431 15.051C83.0711 15.051 82.8261 15.007 82.6081 14.919C82.3921 14.829 82.2081 14.706 82.0561 14.55C81.9041 14.392 81.7871 14.205 81.7051 13.989C81.6251 13.773 81.5851 13.538 81.5851 13.284V10.68H82.2871V13.281C82.2871 13.453 82.3111 13.61 82.3591 13.752C82.4071 13.892 82.4761 14.013 82.5661 14.115C82.6561 14.215 82.7661 14.293 82.8961 14.349C83.0281 14.405 83.1771 14.433 83.3431 14.433ZM90.8266 12.84C90.8266 13.16 90.7746 13.453 90.6706 13.719C90.5666 13.983 90.4196 14.21 90.2296 14.4C90.0416 14.59 89.8146 14.738 89.5486 14.844C89.2846 14.948 88.9906 15 88.6666 15H87.0346V10.68H88.6666C88.9906 10.68 89.2846 10.733 89.5486 10.839C89.8146 10.943 90.0416 11.09 90.2296 11.28C90.4196 11.47 90.5666 11.698 90.6706 11.964C90.7746 12.228 90.8266 12.52 90.8266 12.84ZM90.1096 12.84C90.1096 12.592 90.0756 12.369 90.0076 12.171C89.9416 11.973 89.8456 11.806 89.7196 11.67C89.5956 11.534 89.4446 11.43 89.2666 11.358C89.0886 11.284 88.8886 11.247 88.6666 11.247H87.7396V14.433H88.6666C88.8886 14.433 89.0886 14.397 89.2666 14.325C89.4446 14.253 89.5956 14.149 89.7196 14.013C89.8456 13.875 89.9416 13.708 90.0076 13.512C90.0756 13.314 90.1096 13.09 90.1096 12.84ZM96.3572 12.882C96.5132 12.882 96.6502 12.862 96.7682 12.822C96.8882 12.782 96.9872 12.726 97.0652 12.654C97.1452 12.58 97.2052 12.491 97.2452 12.387C97.2852 12.283 97.3052 12.167 97.3052 12.039C97.3052 11.913 97.2852 11.8 97.2452 11.7C97.2072 11.6 97.1492 11.515 97.0712 11.445C96.9932 11.375 96.8942 11.322 96.7742 11.286C96.6562 11.248 96.5172 11.229 96.3572 11.229H95.7152V12.882H96.3572ZM96.3572 10.68C96.6392 10.68 96.8832 10.713 97.0892 10.779C97.2972 10.845 97.4682 10.938 97.6022 11.058C97.7382 11.176 97.8392 11.319 97.9052 11.487C97.9712 11.653 98.0042 11.837 98.0042 12.039C98.0042 12.245 97.9692 12.434 97.8992 12.606C97.8292 12.776 97.7252 12.923 97.5872 13.047C97.4492 13.169 97.2772 13.265 97.0712 13.335C96.8672 13.403 96.6292 13.437 96.3572 13.437H95.7152V15H95.0132V10.68H96.3572ZM101.623 13.38L101.029 11.802C100.981 11.68 100.932 11.525 100.882 11.337C100.86 11.431 100.836 11.518 100.81 11.598C100.784 11.676 100.76 11.745 100.738 11.805L100.144 13.38H101.623ZM102.952 15H102.409C102.347 15 102.297 14.985 102.259 14.955C102.221 14.923 102.192 14.884 102.172 14.838L101.812 13.884H99.9515L99.5915 14.838C99.5755 14.878 99.5475 14.915 99.5075 14.949C99.4675 14.983 99.4175 15 99.3575 15H98.8145L100.528 10.68H101.239L102.952 15ZM105.67 12.75C105.83 12.75 105.97 12.731 106.09 12.693C106.21 12.653 106.31 12.598 106.39 12.528C106.47 12.458 106.53 12.375 106.57 12.279C106.61 12.181 106.63 12.073 106.63 11.955C106.63 11.719 106.552 11.539 106.396 11.415C106.24 11.291 106.004 11.229 105.688 11.229H105.118V12.75H105.67ZM107.704 15H107.077C106.953 15 106.863 14.952 106.807 14.856L105.799 13.401C105.765 13.351 105.728 13.315 105.688 13.293C105.648 13.271 105.588 13.26 105.508 13.26H105.118V15H104.416V10.68H105.688C105.972 10.68 106.216 10.709 106.42 10.767C106.626 10.825 106.795 10.908 106.927 11.016C107.059 11.122 107.156 11.25 107.218 11.4C107.282 11.55 107.314 11.717 107.314 11.901C107.314 12.051 107.291 12.191 107.245 12.321C107.201 12.451 107.136 12.569 107.05 12.675C106.966 12.781 106.862 12.873 106.738 12.951C106.614 13.029 106.473 13.09 106.315 13.134C106.401 13.186 106.475 13.259 106.537 13.353L107.704 15ZM112.028 11.265H110.681V15H109.982V11.265H108.632V10.68H112.028V11.265ZM117.166 10.68V15H116.809C116.755 15 116.709 14.991 116.671 14.973C116.633 14.953 116.597 14.921 116.563 14.877L114.19 11.829C114.196 11.887 114.2 11.945 114.202 12.003C114.206 12.059 114.208 12.111 114.208 12.159V15H113.59V10.68H113.956C113.986 10.68 114.011 10.682 114.031 10.686C114.053 10.688 114.073 10.693 114.091 10.701C114.109 10.709 114.126 10.721 114.142 10.737C114.158 10.753 114.175 10.773 114.193 10.797L116.569 13.848C116.563 13.786 116.558 13.725 116.554 13.665C116.552 13.605 116.551 13.549 116.551 13.497V10.68H117.166ZM121.852 14.433L121.849 15H119.155V10.68H121.849V11.247H119.86V12.549H121.45V13.098H119.86V14.433H121.852ZM124.826 12.75C124.986 12.75 125.126 12.731 125.246 12.693C125.366 12.653 125.466 12.598 125.546 12.528C125.626 12.458 125.686 12.375 125.726 12.279C125.766 12.181 125.786 12.073 125.786 11.955C125.786 11.719 125.708 11.539 125.552 11.415C125.396 11.291 125.16 11.229 124.844 11.229H124.274V12.75H124.826ZM126.86 15H126.233C126.109 15 126.019 14.952 125.963 14.856L124.955 13.401C124.921 13.351 124.884 13.315 124.844 13.293C124.804 13.271 124.744 13.26 124.664 13.26H124.274V15H123.572V10.68H124.844C125.128 10.68 125.372 10.709 125.576 10.767C125.782 10.825 125.951 10.908 126.083 11.016C126.215 11.122 126.312 11.25 126.374 11.4C126.438 11.55 126.47 11.717 126.47 11.901C126.47 12.051 126.447 12.191 126.401 12.321C126.357 12.451 126.292 12.569 126.206 12.675C126.122 12.781 126.018 12.873 125.894 12.951C125.77 13.029 125.629 13.09 125.471 13.134C125.557 13.186 125.631 13.259 125.693 13.353L126.86 15ZM134.854 12.84C134.854 13.16 134.802 13.455 134.698 13.725C134.594 13.995 134.447 14.228 134.257 14.424C134.069 14.618 133.842 14.77 133.576 14.88C133.312 14.99 133.018 15.045 132.694 15.045C132.372 15.045 132.078 14.99 131.812 14.88C131.548 14.77 131.321 14.618 131.131 14.424C130.941 14.228 130.794 13.995 130.69 13.725C130.586 13.455 130.534 13.16 130.534 12.84C130.534 12.52 130.586 12.225 130.69 11.955C130.794 11.685 130.941 11.452 131.131 11.256C131.321 11.06 131.548 10.907 131.812 10.797C132.078 10.687 132.372 10.632 132.694 10.632C133.018 10.632 133.312 10.687 133.576 10.797C133.842 10.907 134.069 11.06 134.257 11.256C134.447 11.452 134.594 11.685 134.698 11.955C134.802 12.225 134.854 12.52 134.854 12.84ZM134.137 12.84C134.137 12.592 134.103 12.369 134.035 12.171C133.969 11.973 133.873 11.805 133.747 11.667C133.623 11.529 133.472 11.423 133.294 11.349C133.116 11.275 132.916 11.238 132.694 11.238C132.474 11.238 132.275 11.275 132.097 11.349C131.919 11.423 131.767 11.529 131.641 11.667C131.515 11.805 131.418 11.973 131.35 12.171C131.282 12.369 131.248 12.592 131.248 12.84C131.248 13.09 131.282 13.314 131.35 13.512C131.418 13.71 131.515 13.878 131.641 14.016C131.767 14.152 131.919 14.257 132.097 14.331C132.275 14.403 132.474 14.439 132.694 14.439C132.916 14.439 133.116 14.403 133.294 14.331C133.472 14.257 133.623 14.152 133.747 14.016C133.873 13.878 133.969 13.71 134.035 13.512C134.103 13.314 134.137 13.09 134.137 12.84ZM137.288 11.247V12.63H138.977V13.197H137.288V15H136.583V10.68H139.277V11.247H137.288Z" fill="white"/>
</svg>
