<svg width="20" height="20" viewBox="0 0 20 20" fill="none" xmlns="http://www.w3.org/2000/svg">
<path d="M6.37112 2.49976H4.07846C3.20643 2.49976 2.49951 3.20667 2.49951 4.0787C2.49951 11.4909 8.50832 17.4998 15.9206 17.4998C16.7926 17.4998 17.4995 16.7928 17.4995 15.9208V13.6281C17.4995 12.9466 17.0846 12.3338 16.4518 12.0807L14.2554 11.2021C13.6871 10.9748 13.0398 11.0773 12.5695 11.4692L12.0021 11.942C11.3399 12.4939 10.3661 12.4497 9.75661 11.8402L8.15908 10.2427C7.54955 9.63313 7.50538 8.65938 8.05722 7.99717L8.53005 7.42978C8.92195 6.9595 9.02449 6.31221 8.79714 5.74382L7.91858 3.54744C7.66548 2.91467 7.05263 2.49976 6.37112 2.49976Z" stroke="#D7A13B" stroke-linecap="round" stroke-linejoin="round"/>
</svg>
